<?xml version="1.0" encoding="UTF-8" standalone="no"?>
<svg
   width="512"
   height="512"
   viewBox="0 0 256 256"
   fill="none"
   version="1.1"
   id="svg33"
   sodipodi:docname="icon.svg"
   inkscape:export-filename="..\..\icon.png"
   inkscape:export-xdpi="48"
   inkscape:export-ydpi="48"
   inkscape:version="1.4.2 (f4327f4, 2025-05-13)"
   xmlns:inkscape="http://www.inkscape.org/namespaces/inkscape"
   xmlns:sodipodi="http://sodipodi.sourceforge.net/DTD/sodipodi-0.dtd"
   xmlns="http://www.w3.org/2000/svg"
   xmlns:svg="http://www.w3.org/2000/svg">
  <sodipodi:namedview
     id="namedview33"
     pagecolor="#ffffff"
     bordercolor="#000000"
     borderopacity="0.25"
     inkscape:showpageshadow="2"
     inkscape:pageopacity="0.0"
     inkscape:pagecheckerboard="0"
     inkscape:deskcolor="#d4d4d4"
     inkscape:zoom="1.4261993"
     inkscape:cx="213.15395"
     inkscape:cy="273.80466"
     inkscape:window-width="1920"
     inkscape:window-height="991"
     inkscape:window-x="-9"
     inkscape:window-y="-9"
     inkscape:window-maximized="1"
     inkscape:current-layer="svg33" />
  <defs
     id="defs33">
    <linearGradient
       id="paint0_linear_19113_6148"
       x1="444.008"
       y1="198.937"
       x2="412.948"
       y2="198.937"
       gradientUnits="userSpaceOnUse">
      <stop
         id="stop26" />
      <stop
         offset="0.4481"
         stop-color="#100030"
         id="stop27" />
      <stop
         offset="0.8399"
         stop-color="#180070"
         id="stop28" />
      <stop
         offset="1"
         id="stop29" />
    </linearGradient>
    <linearGradient
       id="paint1_linear_19113_6148"
       x1="482.022"
       y1="198.849"
       x2="512.42603"
       y2="198.849"
       gradientUnits="userSpaceOnUse">
      <stop
         id="stop30" />
      <stop
         offset="0.4481"
         stop-color="#100030"
         id="stop31" />
      <stop
         offset="0.8399"
         stop-color="#180070"
         id="stop32" />
      <stop
         offset="1"
         id="stop33" />
    </linearGradient>
    <clipPath
       id="clip0_19113_6148">
      <rect
         width="826"
         height="366"
         fill="#ffffff"
         transform="translate(55,88)"
         id="rect33"
         x="0"
         y="0" />
    </clipPath>
  </defs>
  <g
     id="g2656"
     inkscape:export-ydpi="90.401779"
     inkscape:export-xdpi="90.401779"
     inkscape:export-filename="/home/claus/trabajo/nico/img/spain.png"
     transform="matrix(3.6571429,0,0,5.7143238,-1.2941897,-1.9617274)">
    <rect
       id="rect2630"
       style="fill:#c60b1e"
       height="11.2"
       width="70"
       y="33.943001"
       x="0.35387999" />
    <rect
       id="rect2632"
       style="fill:#ffc400"
       height="22.4"
       width="70"
       y="11.543"
       x="0.35387999" />
    <rect
       id="rect2634"
       style="fill:#c60b1e"
       height="11.2"
       width="70"
       y="0.34330001"
       x="0.35387999" />
  </g>
  <g
     clip-path="url(#clip0_19113_6148)"
     id="g26"
     transform="matrix(1.0297761,0,0,1.0311566,-350.22755,-68.339373)">
    <path
       d="m 511.25987,241.12051 c 0.27718,8.41932 4.70792,20.58261 12.18408,25.25951 6.74346,4.2194 12.18515,6.23675 12.18515,10.91521 0,4.67708 -20.21549,16.52689 -40.98411,4.98898 -20.7698,-11.53787 -22.70761,-25.88346 -24.09217,-31.8086 22.70756,-15.28022 40.70705,-9.3551 40.70705,-9.3551 z"
       fill="#ff48d8"
       id="path12"
       style="display:inline;fill:#ffffff;stroke-width:1.12641" />
    <path
       d="M 535.685,237.104 C 538.423,224.19 557.553,205.732 559.94,180.359 563.07,147.094 546.248,88 464.094,88 c -82.154,0 -94.281,61.023 -94.281,86.488 0,34.048 25.037,51.659 23.864,63.79 20.342,16.046 97.41,34.831 142.008,-1.174 z"
       fill="#ff48d8"
       id="path13"
       style="display:inline;fill:#ffffff" />
    <path
       d="m 417.58852,239.78952 c -0.28193,8.61824 -4.79222,21.06891 -12.40326,25.85661 -6.8642,4.31889 -12.40226,6.38404 -12.40226,11.17286 0,4.78785 20.57632,16.91756 41.71815,5.10709 21.14046,-11.81063 23.11406,-26.49525 24.52343,-32.56032 -23.11417,-15.64131 -41.43606,-9.57624 -41.43606,-9.57624 z"
       fill="#ff48d8"
       id="path14"
       style="display:inline;fill:#ffffff;stroke-width:1.14999" />
    <path
       d="m 487.27684,254.05148 c 0,0 -1.62011,13.50321 -4.04993,21.42818 -2.43068,7.92573 -5.40401,21.21395 -19.98039,21.21395 -14.57638,0 -17.89335,-15.15771 -18.89962,-20.6267 -1.07978,-5.87048 -2.69988,-23.48318 -2.69988,-23.48318 0,0 22.41021,-19.0797 45.62982,1.46775 z"
       fill="#ff48d8"
       id="path15"
       style="display:inline;fill:#ffffff;stroke-width:1.00587" />
    <path
       d="m 535.74856,231.44886 c -1.86467,17.24865 13.32366,17.86492 12.52463,27.72197 -0.79901,9.85577 -32.51008,9.85577 -41.03768,-9.54885 -8.52757,-19.40575 28.51305,-18.17312 28.51305,-18.17312 z"
       fill="#ff48d8"
       id="path16"
       style="display:inline;fill:#ffffff;stroke-width:1.09829" />
    <path
       d="m 393.864,231.44889 c 1.825,17.24879 -13.04,17.86496 -12.258,27.72196 0.782,9.85578 31.818,9.85578 40.164,-9.54871 8.346,-19.40591 -27.906,-18.17325 -27.906,-18.17325 z"
       fill="#ff48d8"
       id="path17"
       style="display:inline;fill:#ffffff;stroke-width:1.08653" />
  </g>
  <g
     clip-path="url(#clip0_19113_6148)"
     id="g98"
     transform="translate(-336.21533,-62.59767)"
     style="display:inline">
    <path
       d="m 512.484,249.47 c 0.261,7.044 4.434,17.22 11.475,21.133 6.351,3.53 11.476,5.218 11.476,9.132 0,3.913 -19.039,13.827 -38.599,4.174 -19.561,-9.653 -21.386,-21.655 -22.69,-26.612 21.386,-12.784 38.338,-7.827 38.338,-7.827 z"
       fill="#ff48d8"
       id="path84" />
    <path
       d="M 535.685,237.104 C 538.423,224.19 557.553,205.732 559.94,180.359 563.07,147.094 546.248,88 464.094,88 c -82.154,0 -94.281,61.023 -94.281,86.488 0,34.048 25.037,51.659 23.864,63.79 20.342,16.046 97.41,34.831 142.008,-1.174 z"
       fill="#ff48d8"
       id="path85" />
    <path
       d="m 415.734,249.47 c -0.261,7.044 -4.434,17.22 -11.476,21.133 -6.351,3.53 -11.475,5.218 -11.475,9.132 0,3.913 19.038,13.827 38.599,4.174 19.56,-9.653 21.386,-21.655 22.69,-26.612 -21.386,-12.784 -38.338,-7.827 -38.338,-7.827 z"
       fill="#ff48d8"
       id="path86" />
    <path
       d="m 486.257,254.273 c 0,0 -1.565,13.817 -3.912,21.926 -2.348,8.11 -5.22,21.707 -19.3,21.707 -14.08,0 -17.284,-15.51 -18.256,-21.106 -1.043,-6.007 -2.608,-24.029 -2.608,-24.029 0,0 21.647,-19.523 44.076,1.502 z"
       fill="#ff48d8"
       id="path87" />
    <path
       d="m 535.66318,236.974 c -1.825,14.61 13.04,15.132 12.258,23.481 -0.782,8.348 -31.818,8.348 -40.164,-8.088 -8.346,-16.437 27.906,-15.393 27.906,-15.393 z"
       fill="#ff48d8"
       id="path88" />
    <path
       d="m 393.66417,236.974 c 1.825,14.61 -13.04,15.132 -12.258,23.481 0.782,8.348 31.818,8.348 40.164,-8.088 8.346,-16.437 -27.906,-15.393 -27.906,-15.393 z"
       fill="#ff48d8"
       id="path89" />
    <path
       d="m 427.619,217.749 c 12.334,0 22.332,-10.001 22.332,-22.339 0,-12.338 -9.998,-22.34 -22.332,-22.34 -12.333,0 -22.331,10.002 -22.331,22.34 0,12.338 9.998,22.339 22.331,22.339 z"
       fill="#ffffff"
       id="path90" />
    <path
       d="m 429.131,214.672 c 8.687,0 15.729,-7.045 15.729,-15.735 0,-8.691 -7.042,-15.736 -15.729,-15.736 -8.688,0 -15.73,7.045 -15.73,15.736 0,8.69 7.042,15.735 15.73,15.735 z"
       fill="url(#paint0_linear_19113_6148)"
       id="path91"
       style="fill:url(#paint0_linear_19113_6148)" />
    <path
       d="m 419.973,194.114 c 1.958,0 3.545,-1.588 3.545,-3.546 0,-1.958 -1.587,-3.546 -3.545,-3.546 -1.957,0 -3.544,1.588 -3.544,3.546 0,1.958 1.587,3.546 3.544,3.546 z"
       fill="#ffffff"
       id="path92" />
    <path
       d="m 497.629,216.013 c 11.374,0 20.595,-9.225 20.595,-20.604 0,-11.378 -9.221,-20.603 -20.595,-20.603 -11.375,0 -20.596,9.225 -20.596,20.603 0,11.379 9.221,20.604 20.596,20.604 z"
       fill="#ffffff"
       id="path93" />
    <path
       d="m 497.584,214.503 c 8.643,0 15.649,-7.008 15.649,-15.654 0,-8.645 -7.006,-15.654 -15.649,-15.654 -8.642,0 -15.648,7.009 -15.648,15.654 0,8.646 7.006,15.654 15.648,15.654 z"
       fill="url(#paint1_linear_19113_6148)"
       id="path94"
       style="fill:url(#paint1_linear_19113_6148)" />
    <path
       d="m 489.518,193.465 c 1.998,0 3.618,-1.621 3.618,-3.62 0,-1.999 -1.62,-3.619 -3.618,-3.619 -1.998,0 -3.618,1.62 -3.618,3.619 0,1.999 1.62,3.62 3.618,3.62 z"
       fill="#ffffff"
       id="path95" />
    <path
       d="m 519.888,154.161 c 0.547,0.229 1,0.449 1.49,0.692 0.48,0.24 0.957,0.497 1.434,0.772 0.495,0.284 0.975,0.594 1.437,0.929 0.569,0.394 1.076,0.87 1.505,1.414 0.213,0.278 0.329,0.62 0.327,0.971 -10e-4,0.351 -0.119,0.691 -0.335,0.968 -0.215,0.277 -0.517,0.474 -0.857,0.56 -0.34,0.086 -0.699,0.057 -1.021,-0.083 l -0.617,-0.27 c -0.124,-0.054 -0.477,-0.237 -0.843,-0.365 -0.372,-0.138 -0.783,-0.268 -1.214,-0.38 -0.429,-0.114 -0.87,-0.218 -1.319,-0.308 -0.439,-0.088 -0.922,-0.178 -1.321,-0.228 -0.348,-0.043 -0.682,-0.16 -0.981,-0.344 -0.298,-0.183 -0.554,-0.428 -0.75,-0.718 -0.196,-0.29 -0.328,-0.619 -0.387,-0.964 -0.059,-0.345 -0.043,-0.699 0.046,-1.038 0.089,-0.339 0.249,-0.655 0.47,-0.927 0.221,-0.271 0.498,-0.493 0.811,-0.649 0.313,-0.156 0.657,-0.243 1.007,-0.256 0.35,-0.012 0.698,0.05 1.022,0.183 z"
       fill="#100030"
       id="path96" />
    <path
       d="m 408.859,161.263 c -0.408,0.018 -0.903,0.077 -1.354,0.134 -0.462,0.06 -0.918,0.134 -1.365,0.219 -0.449,0.084 -0.881,0.187 -1.284,0.304 -0.341,0.097 -0.673,0.219 -0.996,0.365 l -0.375,0.175 c -0.244,0.113 -0.517,0.143 -0.779,0.085 -0.262,-0.057 -0.498,-0.2 -0.671,-0.405 -0.173,-0.205 -0.274,-0.461 -0.287,-0.729 -0.014,-0.268 0.062,-0.533 0.214,-0.754 0.38,-0.534 0.835,-1.011 1.351,-1.415 0.438,-0.358 0.895,-0.693 1.368,-1.004 0.458,-0.304 0.921,-0.591 1.388,-0.862 0.477,-0.273 0.919,-0.525 1.456,-0.785 l 0.14,-0.068 c 0.596,-0.288 1.281,-0.328 1.906,-0.111 0.625,0.218 1.139,0.674 1.427,1.27 0.288,0.596 0.328,1.282 0.111,1.907 -0.217,0.625 -0.674,1.139 -1.269,1.427 -0.307,0.147 -0.641,0.231 -0.981,0.247 z"
       fill="#100030"
       id="path97" />
    <path
       d="m 454.654,230.448 c 0.316,0.343 0.686,0.631 1.096,0.852 0.49,0.269 1.004,0.49 1.537,0.659 1.273,0.39 2.605,0.558 3.935,0.496 1.417,-0.059 2.815,-0.341 4.145,-0.835 0.591,-0.21 1.162,-0.474 1.707,-0.787 l 0.583,-0.344 c 0.188,-0.103 0.268,-0.143 0.453,-0.235 l 2.53,-1.261 c 0.194,-0.097 0.406,-0.155 0.623,-0.17 0.216,-0.015 0.434,0.013 0.64,0.082 0.206,0.069 0.397,0.178 0.561,0.321 0.164,0.143 0.298,0.316 0.395,0.511 0.08,0.163 0.134,0.337 0.159,0.517 0.121,0.881 0.037,1.778 -0.245,2.622 -0.06,0.201 -0.13,0.398 -0.21,0.592 l -0.26,0.535 c -0.174,0.34 -0.374,0.666 -0.597,0.976 -0.811,1.111 -1.822,2.059 -2.981,2.797 -2.155,1.38 -4.639,2.16 -7.197,2.261 -2.649,0.147 -5.278,-0.528 -7.529,-1.933 -1.231,-0.772 -2.271,-1.813 -3.041,-3.045 -0.862,-1.372 -1.19,-3.013 -0.922,-4.611 0.08,-0.393 0.268,-0.755 0.542,-1.047 0.275,-0.292 0.625,-0.502 1.012,-0.606 0.387,-0.104 0.795,-0.098 1.179,0.017 0.384,0.114 0.728,0.334 0.994,0.633 z"
       fill="#100030"
       id="path98" />
  </g>
</svg>
