<svg width="937" height="542" viewBox="0 0 937 542" fill="none" xmlns="http://www.w3.org/2000/svg">
<rect width="937" height="542" fill="#100030"/>
<g clip-path="url(#clip0_19113_6148)">
<path d="M124.24 387.599C124.24 406.283 110.519 421.429 89.2651 421.429C69.9492 421.429 55 406.741 55 388.057C55 368.406 70.3046 354.684 89.6204 354.684C108.936 354.684 124.24 368.915 124.24 387.599ZM89.6198 408.836C101.087 408.836 109.259 399.533 109.259 388.057C109.259 376.58 101.934 367.277 89.6198 367.277C77.5479 367.277 69.9806 376.58 69.9806 388.057C69.9806 399.533 78.072 408.836 89.6198 408.836V408.836Z" fill="#F0FFFF"/>
<path d="M292.078 387.599C292.078 406.283 278.358 421.429 257.103 421.429C237.788 421.429 222.838 406.741 222.838 388.057C222.838 368.406 238.143 354.684 257.459 354.684C276.775 354.684 292.078 368.915 292.078 387.599ZM257.458 408.836C268.926 408.836 277.097 399.533 277.097 388.057C277.097 376.58 269.772 367.277 257.458 367.277C245.386 367.277 237.819 376.58 237.819 388.057C237.819 399.533 245.91 408.836 257.458 408.836Z" fill="#F0FFFF"/>
<path d="M368.449 394.252C368.449 394.252 368.452 368.681 368.449 362.069C369.662 352.816 382.695 357.78 382.695 357.78V392.263C382.695 403.027 390.059 408.287 399.143 408.287C408.227 408.287 415.591 403.208 415.591 392.263C415.591 392.263 415.632 368.702 415.629 362.089C416.841 352.836 429.875 357.8 429.875 357.8V379.978C431.729 407.316 457.864 409.357 457.864 409.357C483.887 412.961 481.597 402.273 481.597 402.273C480.924 396.893 476.913 395.673 469.99 394.785C465.691 394.234 461.958 393.857 461.958 393.857C434.065 392.092 436.809 373.686 436.809 373.686C437.162 358.114 453.817 355.744 453.817 355.744C468.531 353.123 478.923 355.695 478.923 355.695C501.823 360.462 490.547 371.318 488.655 371.936C488.655 371.936 482.556 366.349 468.29 365.546C450.718 364.425 451.028 372.723 451.028 372.723C450.456 378.775 458.204 379.883 458.204 379.883L477.037 382.52C499.284 385.623 496.573 401.411 496.573 401.411C495.112 421.156 471.592 421.301 471.592 421.301C439.427 423.169 427.317 406.46 427.317 406.46C422.809 415.433 413.809 421.429 398.852 421.429C381.022 421.429 368.449 411.428 368.449 393.485" fill="#F0FFFF"/>
<path d="M159.41 355.744C133.684 357.581 127.814 381.498 128.44 388.451C128.083 398.956 135.429 421.429 163.846 421.442C167.302 421.396 170.747 421.067 174.149 420.457L174.147 407.71C170.847 408.248 167.512 408.544 164.169 408.597C150.907 408.929 143.37 398.042 143.421 388.448C143.421 377.321 152.52 368.184 164.169 368.3L187.154 368.295L187.21 399.776C187.21 399.776 185.552 426.449 219.255 420.849V408.148C200.566 412.175 201.575 400.411 201.575 400.411V368.317H219.255V355.724H201.575V340.866H187.21V355.724L159.41 355.744Z" fill="#F0FFFF"/>
<path d="M310.568 440.563C309.356 449.815 296.322 444.852 296.322 444.852V388.057C297.147 369.938 307.982 355.18 330.294 354.683C349.992 354.245 364.14 368.915 364.264 387.599C364.395 407.397 350.519 422.114 330.013 421.245C322.703 420.841 315.563 417.961 310.629 411.622C310.629 411.622 310.565 433.95 310.568 440.563ZM329.924 408.899C341.276 408.899 349.365 399.595 349.365 388.119C349.365 376.643 342.114 367.339 329.924 367.339C317.973 367.339 310.482 376.643 310.482 388.119C310.482 399.596 318.492 408.899 329.924 408.899Z" fill="#F0FFFF"/>
<path d="M568.818 407.213C563.27 413.666 555.593 417.077 546.618 417.077C538.326 417.077 531.316 414.134 526.345 408.564C521.675 403.332 519.103 395.986 519.103 387.88V386.691H574.282L574.265 386.191C573.985 377.779 571.002 370.071 565.866 364.489C560.446 358.598 553.164 355.484 544.807 355.484C527.738 355.484 515.349 369.109 515.349 387.88C515.349 407.118 528.207 420.553 546.618 420.553C556.705 420.553 565.309 416.834 571.498 409.798L571.798 409.457L569.158 406.817L568.818 407.213ZM519.448 383.215C521.466 368.461 531.371 358.961 544.807 358.961C551.718 358.961 557.824 361.482 562.465 366.252C566.725 370.63 569.407 376.637 570.049 383.215H519.448Z" fill="#F0FFFF"/>
<path d="M632.767 363.578C627.889 358.436 620.808 355.486 613.338 355.484C613.336 355.485 613.333 355.485 613.331 355.484C605.861 355.486 598.78 358.436 593.9 363.581C589.25 368.543 587.083 374.98 587.083 383.839V419.16H590.837V383.839C590.837 376.006 592.743 370.311 596.835 365.914C600.854 361.626 607.176 358.962 613.335 358.961C619.493 358.962 625.815 361.626 629.833 365.913C633.926 370.311 635.832 376.006 635.832 383.839V419.16H639.586V383.839C639.586 374.98 637.419 368.543 632.767 363.578Z" fill="#F0FFFF"/>
<path d="M750.294 355.484C742.822 355.484 735.738 358.434 730.857 363.581C726.206 368.543 724.04 374.98 724.04 383.839V419.16H727.793V383.839C727.793 376.007 729.7 370.311 733.792 365.914C737.811 361.625 744.135 358.961 750.294 358.961H750.778V355.484L750.294 355.484Z" fill="#F0FFFF"/>
<path d="M705.652 407.213C700.104 413.666 692.428 417.077 683.453 417.077C675.161 417.077 668.151 414.134 663.18 408.564C658.509 403.332 655.937 395.986 655.937 387.88V386.691H711.116L711.099 386.191C710.819 377.779 707.837 370.071 702.701 364.489C697.281 358.598 689.999 355.484 681.641 355.484C664.573 355.484 652.184 369.109 652.184 387.88C652.184 407.118 665.042 420.553 683.452 420.553C693.54 420.553 702.143 416.834 708.332 409.798L708.632 409.457L705.992 406.817L705.652 407.213ZM656.283 383.215C658.301 368.461 668.205 358.961 681.642 358.961C688.552 358.961 694.658 361.482 699.3 366.252C703.56 370.63 706.242 376.637 706.883 383.215H656.283Z" fill="#F0FFFF"/>
<path d="M876.866 356.878L852.909 407.563L826.061 356.878H822.045L850.861 411.86L831.555 452.883H835.689L881 356.878H876.866Z" fill="#F0FFFF"/>
<path d="M786.349 355.482C777.472 355.482 769.319 358.869 763.392 365.019C757.568 371.062 754.36 379.23 754.36 388.018C754.36 396.807 757.568 404.975 763.392 411.018C769.319 417.168 777.472 420.555 786.349 420.555C797.994 420.555 807.382 414.821 812.426 404.733V418.119C812.426 425.639 812.172 434.111 809.146 439.477C805.099 446.598 797.482 450.519 787.699 450.519C774.66 450.519 765.664 443.585 761.922 437.647L761.641 437.201L758.617 439.469L758.881 439.854C761.162 443.173 769.979 454 787.699 454C798.865 454 807.39 449.679 812.354 441.499C815.888 435.561 816.184 426.245 816.184 417.98V388.423L816.187 388.251C816.189 388.174 816.192 388.096 816.192 388.019C816.192 368.861 803.92 355.482 786.349 355.482ZM812.407 388.019C812.407 405.127 801.692 417.075 786.349 417.075C770.534 417.075 758.145 404.312 758.145 388.019C758.145 371.725 770.534 358.963 786.349 358.963C801.692 358.963 812.407 370.911 812.407 388.018V388.019Z" fill="#F0FFFF"/>
<path d="M512.484 249.47C512.745 256.514 516.918 266.69 523.959 270.603C530.31 274.133 535.435 275.821 535.435 279.735C535.435 283.648 516.396 293.562 496.836 283.909C477.275 274.256 475.45 262.254 474.146 257.297C495.532 244.513 512.484 249.47 512.484 249.47Z" fill="#FF48D8"/>
<path d="M535.685 237.104C538.423 224.19 557.553 205.732 559.94 180.359C563.07 147.094 546.248 88 464.094 88C381.94 88 369.813 149.023 369.813 174.488C369.813 208.536 394.85 226.147 393.677 238.278C414.019 254.324 491.087 273.109 535.685 237.104Z" fill="#FF48D8"/>
<path d="M415.734 249.47C415.473 256.514 411.3 266.69 404.258 270.603C397.907 274.133 392.783 275.821 392.783 279.735C392.783 283.648 411.821 293.562 431.382 283.909C450.942 274.256 452.768 262.254 454.072 257.297C432.686 244.513 415.734 249.47 415.734 249.47Z" fill="#FF48D8"/>
<path d="M486.257 254.273C486.257 254.273 484.692 268.09 482.345 276.199C479.997 284.309 477.125 297.906 463.045 297.906C448.965 297.906 445.761 282.396 444.789 276.8C443.746 270.793 442.181 252.771 442.181 252.771C442.181 252.771 463.828 233.248 486.257 254.273Z" fill="#FF48D8"/>
<path d="M535.163 236.974C533.338 251.584 548.203 252.106 547.421 260.455C546.639 268.803 515.603 268.803 507.257 252.367C498.911 235.93 535.163 236.974 535.163 236.974Z" fill="#FF48D8"/>
<path d="M393.864 236.974C395.689 251.584 380.824 252.106 381.606 260.455C382.388 268.803 413.424 268.803 421.77 252.367C430.116 235.93 393.864 236.974 393.864 236.974Z" fill="#FF48D8"/>
<path d="M427.619 217.749C439.953 217.749 449.951 207.748 449.951 195.41C449.951 183.072 439.953 173.07 427.619 173.07C415.286 173.07 405.288 183.072 405.288 195.41C405.288 207.748 415.286 217.749 427.619 217.749Z" fill="white"/>
<path d="M429.131 214.672C437.818 214.672 444.86 207.627 444.86 198.937C444.86 190.246 437.818 183.201 429.131 183.201C420.443 183.201 413.401 190.246 413.401 198.937C413.401 207.627 420.443 214.672 429.131 214.672Z" fill="url(#paint0_linear_19113_6148)"/>
<path d="M419.973 194.114C421.931 194.114 423.518 192.526 423.518 190.568C423.518 188.61 421.931 187.022 419.973 187.022C418.016 187.022 416.429 188.61 416.429 190.568C416.429 192.526 418.016 194.114 419.973 194.114Z" fill="white"/>
<path d="M497.629 216.013C509.003 216.013 518.224 206.788 518.224 195.409C518.224 184.031 509.003 174.806 497.629 174.806C486.254 174.806 477.033 184.031 477.033 195.409C477.033 206.788 486.254 216.013 497.629 216.013Z" fill="white"/>
<path d="M497.584 214.503C506.227 214.503 513.233 207.495 513.233 198.849C513.233 190.204 506.227 183.195 497.584 183.195C488.942 183.195 481.936 190.204 481.936 198.849C481.936 207.495 488.942 214.503 497.584 214.503Z" fill="url(#paint1_linear_19113_6148)"/>
<path d="M489.518 193.465C491.516 193.465 493.136 191.844 493.136 189.845C493.136 187.846 491.516 186.226 489.518 186.226C487.52 186.226 485.9 187.846 485.9 189.845C485.9 191.844 487.52 193.465 489.518 193.465Z" fill="white"/>
<path d="M519.888 154.161C520.435 154.39 520.888 154.61 521.378 154.853C521.858 155.093 522.335 155.35 522.812 155.625C523.307 155.909 523.787 156.219 524.249 156.554C524.818 156.948 525.325 157.424 525.754 157.968C525.967 158.246 526.083 158.588 526.081 158.939C526.08 159.29 525.962 159.63 525.746 159.907C525.531 160.184 525.229 160.381 524.889 160.467C524.549 160.553 524.19 160.524 523.868 160.384L523.251 160.114C523.127 160.06 522.774 159.877 522.408 159.749C522.036 159.611 521.625 159.481 521.194 159.369C520.765 159.255 520.324 159.151 519.875 159.061C519.436 158.973 518.953 158.883 518.554 158.833C518.206 158.79 517.872 158.673 517.573 158.489C517.275 158.306 517.019 158.061 516.823 157.771C516.627 157.481 516.495 157.152 516.436 156.807C516.377 156.462 516.393 156.108 516.482 155.769C516.571 155.43 516.731 155.114 516.952 154.842C517.173 154.571 517.45 154.349 517.763 154.193C518.076 154.037 518.42 153.95 518.77 153.937C519.12 153.925 519.468 153.987 519.792 154.12L519.888 154.161Z" fill="#100030"/>
<path d="M408.859 161.263C408.451 161.281 407.956 161.34 407.505 161.397C407.043 161.457 406.587 161.531 406.14 161.616C405.691 161.7 405.259 161.803 404.856 161.92C404.515 162.017 404.183 162.139 403.86 162.285L403.485 162.46C403.241 162.573 402.968 162.603 402.706 162.545C402.444 162.488 402.208 162.345 402.035 162.14C401.862 161.935 401.761 161.679 401.748 161.411C401.734 161.143 401.81 160.878 401.962 160.657C402.342 160.123 402.797 159.646 403.313 159.242C403.751 158.884 404.208 158.549 404.681 158.238C405.139 157.934 405.602 157.647 406.069 157.376C406.546 157.103 406.988 156.851 407.525 156.591L407.665 156.523C408.261 156.235 408.946 156.195 409.571 156.412C410.196 156.63 410.71 157.086 410.998 157.682C411.286 158.278 411.326 158.964 411.109 159.589C410.892 160.214 410.435 160.728 409.84 161.016C409.533 161.163 409.199 161.247 408.859 161.263V161.263Z" fill="#100030"/>
<path d="M454.654 230.448C454.97 230.791 455.34 231.079 455.75 231.3C456.24 231.569 456.754 231.79 457.287 231.959C458.56 232.349 459.892 232.517 461.222 232.455C462.639 232.396 464.037 232.114 465.367 231.62C465.958 231.41 466.529 231.146 467.074 230.833L467.657 230.489C467.845 230.386 467.925 230.346 468.11 230.254L470.64 228.993C470.834 228.896 471.046 228.838 471.263 228.823C471.479 228.808 471.697 228.836 471.903 228.905C472.109 228.974 472.3 229.083 472.464 229.226C472.628 229.369 472.762 229.542 472.859 229.737C472.939 229.9 472.993 230.074 473.018 230.254C473.139 231.135 473.055 232.032 472.773 232.876C472.713 233.077 472.643 233.274 472.563 233.468L472.303 234.003C472.129 234.343 471.929 234.669 471.706 234.979C470.895 236.09 469.884 237.038 468.725 237.776C466.57 239.156 464.086 239.936 461.528 240.037C458.879 240.184 456.25 239.509 453.999 238.104C452.768 237.332 451.728 236.291 450.958 235.059C450.096 233.687 449.768 232.046 450.036 230.448C450.116 230.055 450.304 229.693 450.578 229.401C450.853 229.109 451.203 228.899 451.59 228.795C451.977 228.691 452.385 228.697 452.769 228.812C453.153 228.926 453.497 229.146 453.763 229.445L454.654 230.448Z" fill="#100030"/>
</g>
<defs>
<linearGradient id="paint0_linear_19113_6148" x1="444.008" y1="198.937" x2="412.948" y2="198.937" gradientUnits="userSpaceOnUse">
<stop/>
<stop offset="0.4481" stop-color="#100030"/>
<stop offset="0.8399" stop-color="#180070"/>
<stop offset="1"/>
</linearGradient>
<linearGradient id="paint1_linear_19113_6148" x1="482.022" y1="198.849" x2="512.426" y2="198.849" gradientUnits="userSpaceOnUse">
<stop/>
<stop offset="0.4481" stop-color="#100030"/>
<stop offset="0.8399" stop-color="#180070"/>
<stop offset="1"/>
</linearGradient>
<clipPath id="clip0_19113_6148">
<rect width="826" height="366" fill="white" transform="translate(55 88)"/>
</clipPath>
</defs>
</svg>
